<svg width="136" height="135" viewBox="0 0 136 135" fill="none" xmlns="http://www.w3.org/2000/svg">
<path d="M57.1885 5.24215C63.0901 -0.89452 72.9103 -0.89452 78.8119 5.24215L82.7053 9.29064C85.921 12.6345 90.503 14.3022 95.1158 13.8077L100.7 13.209C109.166 12.3015 116.689 18.6138 117.265 27.1082L117.645 32.7122C117.959 37.3407 120.397 41.5635 124.249 44.1497L128.912 47.281C135.98 52.0273 137.685 61.6983 132.666 68.5758L129.356 73.1131C126.621 76.8606 125.774 81.6626 127.062 86.1194L128.622 91.5155C130.985 99.6947 126.075 108.199 117.81 110.242L112.357 111.59C107.853 112.703 104.118 115.837 102.24 120.079L99.9663 125.215C96.5194 133 87.2915 136.359 79.647 132.61L74.6037 130.138C70.4382 128.095 65.5622 128.095 61.3967 130.138L56.3534 132.61C48.7089 136.359 39.481 133 36.0341 125.215L33.7602 120.079C31.8821 115.837 28.1468 112.703 23.6431 111.59L18.1903 110.242C9.92493 108.199 5.01485 99.6947 7.37857 91.5155L8.93797 86.1194C10.226 81.6626 9.37922 76.8606 6.6446 73.1131L3.33369 68.5758C-1.68495 61.6983 0.0202966 52.0273 7.08855 47.281L11.7517 44.1497C15.6031 41.5635 18.0411 37.3407 18.3551 32.7122L18.7353 27.1082C19.3116 18.6138 26.8343 12.3015 35.2998 13.209L40.8846 13.8077C45.4974 14.3022 50.0794 12.6345 53.2951 9.29064L57.1885 5.24215Z" fill="#8B5CF6"/>
</svg>
